<svg width="21" height="24" viewBox="0 0 21 24" fill="none" xmlns="http://www.w3.org/2000/svg">
<path fill-rule="evenodd" clip-rule="evenodd" d="M4.95833 7.80723V5.49398C4.95833 2.45974 7.43942 0 10.5 0C13.5606 0 16.0417 2.45974 16.0417 5.49398V7.80723H16.3333C18.9107 7.80723 21 9.87859 21 12.4337V19.3735C21 21.9286 18.9107 24 16.3333 24H4.66667C2.08934 24 0 21.9286 0 19.3735V12.4337C0 9.87859 2.08934 7.80723 4.66667 7.80723H4.95833ZM6.70833 5.49398C6.70833 3.41792 8.40592 1.73494 10.5 1.73494C12.5941 1.73494 14.2917 3.41792 14.2917 5.49398V7.80723H6.70833V5.49398ZM11.6667 14.747C11.6667 15.0403 11.5565 15.3082 11.375 15.512V19.3735C11.375 19.8526 10.9832 20.241 10.5 20.241C10.0168 20.241 9.625 19.8526 9.625 19.3735V15.512C9.44348 15.3082 9.33333 15.0403 9.33333 14.747C9.33333 14.1082 9.85567 13.5904 10.5 13.5904C11.1443 13.5904 11.6667 14.1082 11.6667 14.747Z" fill="#7B7B7B"/>
</svg>
